<svg xmlns="http://www.w3.org/2000/svg" enable-background="new 0 0 64 64" viewBox="0 0 64 64" id="freelancer">
  <path fill="#f7f7f7" d="M16.964,24.719H8.262c0.207,4.775,1.798,9.28,4.661,13.125h6.469C17.904,33.916,17.067,29.421,16.964,24.719
	z M32,20.09c-2.625,0-4.764,2.139-4.764,4.764c0,2.635,2.139,4.774,4.764,4.774c2.635,0,4.774-2.14,4.774-4.774
	C36.774,22.229,34.635,20.09,32,20.09z M21.625,9.518c-1.592,3.844-2.48,8.35-2.594,13.135h6.511
	c0.806-2.377,2.883-4.164,5.426-4.547V9.518H21.625z M12.933,9.518c-2.862,3.834-4.464,8.35-4.671,13.135h8.702
	c0.103-4.733,0.94-9.219,2.428-13.135H12.933z M22.575,7.451h8.392V0.01C27.763,0.485,24.787,3.141,22.575,7.451z M14.669,7.451
	h5.601c1.22-2.625,2.708-4.765,4.382-6.356C20.849,2.314,17.418,4.484,14.669,7.451z M47.047,24.719
	c-0.104,4.702-0.94,9.197-2.429,13.125h6.459c2.862-3.845,4.454-8.35,4.661-13.125H47.047z M51.067,9.518h-6.459
	c1.499,3.916,2.335,8.401,2.439,13.135h8.691C55.531,17.867,53.929,13.352,51.067,9.518z M39.358,1.095
	c1.664,1.603,3.152,3.741,4.372,6.356h5.601C46.582,4.484,43.151,2.314,39.358,1.095z M38.831,24.719
	c0.01,0.041,0.01,0.094,0.01,0.135c0,3.771-3.069,6.842-6.841,6.842s-6.831-3.07-6.831-6.842c0-0.041,0-0.094,0.01-0.135H19.03
	c0.104,4.123,0.786,8.061,1.995,11.555l0.558-0.973c0.155-0.258,0.403-0.434,0.692-0.496l5.208-1.053
	c0.444-0.094,0.899,0.123,1.116,0.516l3.41,6.252l3.39-6.252c0.217-0.393,0.672-0.609,1.116-0.516l5.208,1.053
	c0.289,0.063,0.547,0.238,0.692,0.496l0.568,0.982c1.209-3.493,1.891-7.441,1.995-11.564H38.831z M42.386,9.518h-9.353v8.588
	c2.542,0.383,4.63,2.17,5.436,4.547h6.511C44.866,17.877,43.978,13.361,42.386,9.518z M33.033,0v7.451h8.392
	C39.224,3.121,36.227,0.475,33.033,0z M40.867,36.738l-4.01-0.807l-3.937,7.244c-0.186,0.331-0.538,0.537-0.91,0.537
	c-0.382,0-0.734-0.206-0.909-0.537l-3.948-7.244l-4.01,0.807L12.665,54.844l3.018,1.736c0,0,7.833-10.17,7.833-9.705V64h16.979
	V46.875c0-0.465,7.833,9.705,7.833,9.705l3.007-1.736L40.867,36.738z M45.083,39.91l1.478,2.543c1.002-0.766,1.933-1.613,2.79-2.543
	H45.083z M14.649,39.91c0.857,0.93,1.798,1.777,2.79,2.553l1.478-2.553H14.649z" class="color6691ad svgShape"></path>
</svg>
